<svg aria-hidden="true" style="position: absolute; width: 0; height: 0; overflow: hidden;" version="1.1" xmlns="http://www.w3.org/2000/svg" xmlns:xlink="http://www.w3.org/1999/xlink">
<defs>
<symbol id="icon-nature-svgrepo-com" viewBox="0 0 32 32">
<path d="M26.651 14.651c-2.548 2.548-6.026 3.235-8.651 3.335v10.014c0 1.105-0.895 2-2 2s-2-0.895-2-2v-6.014c-2.625-0.1-6.103-0.787-8.651-3.335-4.651-4.651-3.101-12.403-3.101-12.403s7.752-1.55 12.403 3.101c0.053 0.053 0.106 0.107 0.158 0.162 0.506-1.47 1.304-2.925 2.54-4.162 4.651-4.651 12.403-3.101 12.403-3.101s1.55 7.752-3.101 12.403zM18.018 13.982c0.125-0.006 0.252-0.014 0.38-0.024 2.056-0.158 4.054-0.765 5.424-2.135s1.977-3.368 2.135-5.424c0.010-0.129 0.018-0.255 0.024-0.38-0.125 0.006-0.252 0.014-0.38 0.024-2.056 0.158-4.054 0.765-5.424 2.135s-1.977 3.368-2.135 5.424c-0.010 0.129-0.018 0.255-0.024 0.38zM13.601 17.958c0.129 0.010 0.255 0.018 0.38 0.024-0.006-0.125-0.014-0.252-0.024-0.38-0.158-2.056-0.765-4.054-2.135-5.424s-3.368-1.977-5.424-2.135c-0.129-0.010-0.255-0.018-0.38-0.024 0.006 0.125 0.014 0.252 0.024 0.38 0.158 2.056 0.765 4.054 2.135 5.424s3.368 1.977 5.424 2.135z"></path>
</symbol>
</defs>
</svg>
